<svg xmlns="http://www.w3.org/2000/svg" data-name="Layer 1" viewBox="0 0 122.88 116.97"><path d="M67.83 27.18c-10.47-3.29-19.24-1-25.44 4.52a5.69 5.69 0 0 1 3.08 3.7 48.8 48.8 0 0 1 1.74 10.14 5.7 5.7 0 0 1 6.71 4.12 51.5 51.5 0 0 1 2 12.18 5 5 0 0 1 .55-.18 5.7 5.7 0 0 1 7 4.06c2.84 10.68 2.9 17.68.41 23-2.11 4.45-5.59 7.19-10.4 9.34.92.91 1.89 1.81 2.91 2.69 8 5.72 15 4.94 21.5 1.4 5.16 2.45 10.62 3.42 16.49 1.22 8.63-3.24 17.42-16 21.56-24 9-17.3 12.12-39.5-8.06-50.32-5.51-2.95-12.39-3.82-21.11-1.86a32.1 32.1 0 0 1-18.87 0Z" style="fill:#d3141b;fill-rule:evenodd"/><path d="M61.36 24c4.41.54 9.14-.47 14.25-3.21l1-5C71 6 61.62.93 46.16 3.3l-6.08.63C44.53 13.18 50 22.61 61.36 24" style="fill-rule:evenodd;fill:#7db820"/><path d="M47.12 7.27c10.12 3.5 16.69 4.9 25.18 11.47-10-3.3-16.38-5.45-25.18-11.47" style="fill-rule:evenodd;fill:#537918"/><path d="M75.1 22h.06a44.6 44.6 0 0 0-.39 6.56l5.38.11a36 36 0 0 1 1.71-12 28 28 0 0 1 7.74-12A2.69 2.69 0 1 0 86 .71 33.26 33.26 0 0 0 76.75 15c-.25.73-.47 1.49-.67 2.26v-.06z" style="fill-rule:evenodd;fill:#543429"/><path d="M31.38 58.32c9.14-3.13 12.45-6.82 8.62-21.47-7.18 5.67-15.53 9.73-8.58 21.47Zm-6.52-15.06c8.51-2.93 11.6-6.36 8-20-6.69 5.27-14.45 9.05-8 20m17.21 53.26c-10.84 5.71-17.07 5.57-27.25-10.73 11.47-1.71 22.46-5.87 27.25 10.73m-8.22-19.1c-9.64 5.08-15.22 5-24.24-9.54 10.2-1.52 20-5.24 24.24 9.54m-7.32-17C18 64.93 13 64.81 5 52c9.05-1.34 17.72-4.64 21.51 8.47ZM20 45.34c-8 4.2-12.57 4.1-20-7.89 8.42-1.26 16.51-4.32 20 7.89m27 49c11.59-4 15.79-8.64 10.86-27.2C48.79 74.36 38.22 79.51 47 94.37ZM38.75 75.3c10.3-3.53 14-7.69 9.66-24.19-8.1 6.38-17.5 11-9.66 24.19" style="fill-rule:evenodd;fill:#ebbb19"/><path d="M17.55 31.9C23 23.24 21 15.37 7.62 8.76c-4 10.07-2.35 20.82 9.93 23.14m26.65 69.16L49 99l6.21 14.35c1.36 3.15-3.43 5.21-4.79 2.07l-6.2-14.35Z" style="fill-rule:evenodd;fill:#f09418"/></svg>